<?xml version="1.0" encoding="utf-8"?>
<!-- Generator: Adobe Illustrator 20.0.0, SVG Export Plug-In . SVG Version: 6.00 Build 0)  -->
<svg version="1.1" id="Layer_1" xmlns="http://www.w3.org/2000/svg" xmlns:xlink="http://www.w3.org/1999/xlink" x="0px" y="0px"
	 viewBox="0 0 182.5 39.3" style="enable-background:new 0 0 182.5 39.3;" xml:space="preserve">
<style type="text/css">
	.st0{fill:#113F5B;}
</style>
<g>
	<path class="st0" d="M8.4,11.4H14v5.5H8.4V11.4z M25,27.9v5.5H8.4v-5.5H25z M30.5,5.8v5.5H14V5.8H30.5z M14,22.4v-5.5h11v5.5H14z
		 M25,27.9v-5.5h5.5v5.5H25z"/>
	<path class="st0" d="M41.6,11.4H36V5.8h5.5V11.4z M41.6,33.4H36V16.9h5.5V33.4z"/>
	<path class="st0" d="M58.1,11.4h5.5v5.5h-5.5v11h-5.5v-11h-5.5v-5.5h5.5V5.8h5.5V11.4z M58.1,33.4v-5.5h5.5v5.5H58.1z"/>
	<path class="st0" d="M74.7,33.4v-5.5h-5.5v-11h5.5v-5.5h11v5.5h5.5v5.5h-11v5.5h5.5v5.5H74.7z M80.2,22.4v-5.5h-5.5v5.5H80.2z"/>
	<path class="st0" d="M102.3,27.9h-5.5V11.4h5.5V5.8h11v5.5h5.5v16.6h-5.5v5.5h-11V27.9z M113.3,27.9V11.4h-11v16.6H113.3z"/>
	<path class="st0" d="M129.9,33.4h-5.5V11.4h16.6v5.5h-11V33.4z M140.9,16.9h5.5v16.6h-5.5V16.9z"/>
	<path class="st0" d="M157.5,33.4v-5.5h-5.5v-11h5.5v-5.5h11v5.5h5.5v5.5h-11v5.5h5.5v5.5H157.5z M163,22.4v-5.5h-5.5v5.5H163z"/>
</g>
</svg>
